# xmcd
#
# Track frame offsets: 
#        150
#        17498
#        41099
#        59365
#        78540
#        94284
#        116581
#        135583
#
# Disc length: 2091 seconds
#
# Revision: 0
# Processed by: cddbd v1.5.2PL0 Copyright (c) Steve Scherf et al.
# Submitted via: ExactAudioCopy v0.99pb4
#
DISCID=65082908
DTITLE=Teddy Pendergrass - Heaven Only Knows
DYEAR=1968
DGENRE=Soul
TTITLE0=Crazy About Your Love
TTITLE1=Judge For Yourself
TTITLE2=I Want My Baby Back
TTITLE3=Life Is For Living
TTITLE4=You and Me For Right Now
TTITLE5=Just Because You're Mine
TTITLE6=Heaven Only Knows
TTITLE7=Don't Ever Stop (Giving Your Love Tom ME)
EXTD=
EXTT0=
EXTT1=
EXTT2=
EXTT3=
EXTT4=
EXTT5=
EXTT6=
EXTT7=
PLAYORDER=
